<?xml version="1.0" encoding="UTF-8" standalone="no" ?>
<!DOCTYPE svg PUBLIC "-//W3C//DTD SVG 1.1//EN" "http://www.w3.org/Graphics/SVG/1.1/DTD/svg11.dtd">
<svg xmlns="http://www.w3.org/2000/svg" xmlns:xlink="http://www.w3.org/1999/xlink" version="1.1" width="30" height="30" viewBox="0 0 30 30" xml:space="preserve">
<desc>Created with Fabric.js 4.2.0</desc>
<defs>
</defs>
<rect x="0" y="0" width="100%" height="100%" fill="transparent"></rect>
<g transform="matrix(1 0 0 1 540 540)" id="04afb4cb-a7ed-4177-bbe5-245898e81c34"  >
<rect style="stroke: none; stroke-width: 1; stroke-dasharray: none; stroke-linecap: butt; stroke-dashoffset: 0; stroke-linejoin: miter; stroke-miterlimit: 4; fill: rgb(239,239,239); fill-opacity: 0.66; fill-rule: nonzero; opacity: 1; visibility: hidden;" vector-effect="non-scaling-stroke"  x="-540" y="-540" rx="0" ry="0" width="1080" height="1080" />
</g>
<g transform="matrix(1 0 0 1 540 540)" id="68a516d4-1f0e-48ae-9504-4f06f9e74adf"  >
</g>
<g transform="matrix(1 0 0 1 15 15)" id="04afb4cb-a7ed-4177-bbe5-245898e81c34"  >
<rect style="stroke: none; stroke-width: 1; stroke-dasharray: none; stroke-linecap: butt; stroke-dashoffset: 0; stroke-linejoin: miter; stroke-miterlimit: 4; fill: rgb(255,255,255); fill-rule: nonzero; opacity: 1; visibility: hidden;" vector-effect="non-scaling-stroke"  x="-15" y="-15" rx="0" ry="0" width="30" height="30" />
</g>
<g transform="matrix(0 0 0 0 0 0)" id="68a516d4-1f0e-48ae-9504-4f06f9e74adf"  >
</g>
<g transform="matrix(0.16 0 0 0.17 15 15)" id="8b51f351-6fd8-4ce4-b07f-078a41f47754"  >
<polygon style="stroke: rgb(235,212,46); stroke-width: 5; stroke-dasharray: none; stroke-linecap: butt; stroke-dashoffset: 0; stroke-linejoin: miter; stroke-miterlimit: 4; fill: rgb(219,205,205); fill-rule: nonzero; opacity: 1;" vector-effect="non-scaling-stroke"  points="0,-35.47 11.56,-12.17 37.29,-8.4 18.68,9.8 23.06,35.47 0,23.42 -23.06,35.47 -18.74,9.8 -37.29,-8.4 -11.56,-12.17 " />
</g>
</svg>